<mxfile host="app.diagrams.net" modified="2024-05-05T14:28:42.108Z" agent="Mozilla/5.0 (Windows NT 10.0; Win64; x64) AppleWebKit/537.36 (KHTML, like Gecko) Chrome/124.0.0.0 Safari/537.36" version="24.3.1" etag="dIGtgk2YxyfkOnVO2cG1" type="github">
  <diagram name="Page-1" id="LOLi9Zbrq_aavifiTgL2">
    <mxGraphModel>
      <root>
        <mxCell id="0" />
        <mxCell id="1" parent="0" />
      </root>
    </mxGraphModel>
  </diagram>
</mxfile>
